# xmcd CD database file
#
# Track frame offsets:
#	150
#	24794
#	40428
#	67573
#	97317
#	136783
#	165420
#	189204
#	210220
#
# Disc length: 3056 seconds
#
# Revision: 0
# Processed by: cddbd v1.5.1PL0 Copyright (c) Steve Scherf et al.
# Submitted via: CDex 1.51
#
DISCID=630bee09
DTITLE=Lionel Hampton - Satin Doll
DYEAR=1977
DGENRE=Jazz
TTITLE0=Mr. PC
TTITLE1=I Wish You Love
TTITLE2=It Don't Mean A Thing If It Ain't Got That Swing
TTITLE3=Memories Of You
TTITLE4=Old Man River
TTITLE5=How High the Moon
TTITLE6=Satin Doll
TTITLE7=Sleepy Time Down South
TTITLE8=Ain't Misbehavin'
EXTD=YEAR: 1977
EXTT0=
EXTT1=
EXTT2=
EXTT3=
EXTT4=
EXTT5=
EXTT6=
EXTT7=
EXTT8=
PLAYORDER=
